<svg width="231" height="77" viewBox="0 0 231 77" fill="none" xmlns="http://www.w3.org/2000/svg">
<path d="M58.1004 50C58.1004 50 58.1337 49.9667 58.2004 49.9C62.1004 42.3 58.8004 34.4 50.5004 32.1C48.4004 31.6 46.1004 31.4 43.9004 31.2C41.8004 31.1 41.1004 30.4 41.6004 28.3C41.8004 27.2 42.2004 26.1 42.4004 25C42.7004 22.5 43.2004 19.9 43.2004 17.4C42.9004 4.7 30.4004 -2.89999 19.0004 2.80001C18.9337 2.80001 18.8671 2.83334 18.8004 2.90001C17.4004 3.70001 15.4004 5 12.7004 7.4C3.80041 17.4 0.500391 29.2 1.90039 42.6C1.90039 42.6 1.90039 42.6333 1.90039 42.7C2.30039 45.1 2.70039 47.1 2.90039 48.7C3.10039 49.7 4.1004 50.4 5.1004 50.1C5.16707 50.1 5.23372 50.1 5.30038 50.1C6.60038 49.6 7.20039 48.4 6.90039 46.8C5.40039 39.5 6.30038 32.4 8.80038 25.5C10.4004 20.8 12.7004 16.5 16.3004 12.9C16.3671 12.8333 16.4004 12.8 16.4004 12.8C17.0004 12.3 17.6004 11.8 18.2004 11.2C18.3337 11.0667 18.4671 10.9667 18.6004 10.9C18.6671 10.8333 18.7337 10.8 18.8004 10.8C20.0004 9.90001 21.7004 8.90001 23.5004 8.30001C23.5004 8.30001 23.5337 8.30001 23.6004 8.30001C27.5004 6.70001 32.2004 7.7 35.4004 10.9C37.7004 13.1 39.0004 16.2 38.7004 19.7C38.4004 23.1 37.7004 26.4 37.1004 29.8C37.0004 30.3 36.9004 30.8 36.8004 31.4C36.6004 33.5 37.5004 34.7 39.7004 34.8C41.4004 34.9 43.1004 34.7 44.9004 34.7C47.5004 34.7 50.1004 35.2 52.3004 36.8C55.3004 39 56.3004 42 55.7004 45.5C55.2004 47.9 54.1004 50.1 52.5004 51.9C52.5004 51.9667 52.4671 52 52.4004 52C51.6004 53.2 50.0004 55 47.2004 56.8C47.1337 56.8667 47.0671 56.9333 47.0004 57C46.7337 57.2667 46.3337 57.5333 45.8004 57.8C42.3004 60 38.6004 61.6 34.6004 62.3C25.4004 64.1 16.4004 63.4 7.5004 61.1C5.8004 60.6 4.10039 60 2.40039 59.6C1.80039 59.5 0.800397 59.9 0.500397 60.4C0.43373 60.5333 0.400391 60.7 0.400391 60.9C0.500391 61.6 1.00041 62.2 1.70041 62.4L9.0004 64.5C9.0004 64.5 9.0004 64.5333 9.0004 64.6C11.4004 65 13.7004 65.5 16.1004 65.8C17.7671 66 19.4337 66.1667 21.1004 66.3C21.1671 66.3 21.2004 66.3 21.2004 66.3C26.4004 66.7 31.6004 66.4 36.7004 65.1C36.7671 65.1 36.8004 65.1 36.8004 65.1C37.6004 64.9 38.4004 64.6667 39.2004 64.4C42.2004 63.4 45.0004 61.8 47.8004 60.4C47.8671 60.3333 47.9337 60.3 48.0004 60.3C53.5004 56.6 56.5004 53 58.1004 50Z" fill="url(#paint0_linear_740_106)"/>
<path fill-rule="evenodd" clip-rule="evenodd" d="M93.2004 27.0996C91.2004 29.1663 88.8337 30.2663 86.1003 30.3996C82.367 30.4663 79.4337 29.533 77.3004 27.5996C75.1004 25.733 73.8337 22.9329 73.5004 19.1996V2.09961H79.6003V11.7996C79.8003 11.3996 80.1337 11.0663 80.6003 10.7996C81.1337 10.4663 81.7337 10.233 82.4004 10.0996C83.0671 9.89962 83.767 9.73295 84.5004 9.59962C85.2337 9.53295 85.967 9.49961 86.7004 9.49961C87.567 9.49961 88.4337 9.63294 89.3004 9.8996C90.167 10.1663 90.9337 10.5329 91.6003 10.9996C92.3337 11.4663 92.967 12.0329 93.5004 12.6996C94.1004 13.2996 94.6004 13.9996 95.0004 14.7996C95.4004 15.5329 95.7004 16.3663 95.9004 17.2996C96.1671 18.1663 96.3004 19.0329 96.3004 19.8996C96.2337 22.6329 95.2004 25.033 93.2004 27.0996ZM90.7004 19.6996C90.7004 18.2329 90.2004 17.033 89.2004 16.0996C88.2004 15.1663 86.9337 14.6996 85.4004 14.6996C84.4004 14.6996 83.5004 14.9329 82.7004 15.3996C81.9004 15.7996 81.267 16.3663 80.8004 17.0996C80.3337 17.8996 80.1003 18.7663 80.1003 19.6996C80.1003 21.0996 80.6003 22.2663 81.6003 23.1996C82.6003 24.1329 83.8671 24.5996 85.4004 24.5996C86.9337 24.5996 88.2004 24.1329 89.2004 23.1996C90.2004 22.2663 90.7004 21.0996 90.7004 19.6996Z" fill="#4972B9"/>
<path fill-rule="evenodd" clip-rule="evenodd" d="M99.4004 13.0997C101.334 10.833 104 9.69971 107.4 9.69971C108.6 9.69971 109.734 9.86637 110.8 10.1997C111.934 10.4664 112.9 10.933 113.7 11.5997C114.567 12.2664 115.334 13.0664 116 13.9997C116.6 14.8664 117.034 15.933 117.3 17.1997C117.567 18.3997 117.634 19.733 117.5 21.1997H103.2C103.267 21.733 103.434 22.1997 103.7 22.5997C103.967 22.9997 104.3 23.333 104.7 23.5997C105.1 23.8664 105.534 24.0664 106 24.1997C106.467 24.3997 107 24.4997 107.6 24.4997C108.067 24.4997 108.534 24.433 109 24.2997C109.467 24.1664 109.834 23.9664 110.1 23.6997C110.434 23.4997 110.7 23.2997 110.9 23.0997C111.167 22.833 111.334 22.633 111.4 22.4997C111.534 22.3664 111.6 22.2664 111.6 22.1997L116.7 24.8997C115.834 26.433 114.567 27.6664 112.9 28.5997C111.234 29.533 109.4 29.9664 107.4 29.8997C104.8 29.8997 102.567 29.1664 100.7 27.6997C98.3004 25.7664 97.1003 23.0997 97.1003 19.6997C97.1003 17.0997 97.8671 14.8997 99.4004 13.0997ZM111.5 16.4997C111.5 15.833 111.1 15.333 110.3 14.9997C109.567 14.5997 108.6 14.3997 107.4 14.3997C105.267 14.3997 103.9 15.0997 103.3 16.4997H111.5Z" fill="#4972B9"/>
<path d="M121.5 14.6998H117.6L117.7 9.59981H121.6V5.5998L127.3 1.7998L127.2 9.3998H132.4V14.7998H127.2V21.1998C127.2 22.1998 127.3 22.8998 127.5 23.2998C127.7 23.7665 128.067 24.0331 128.6 24.0998C129.134 24.2331 129.667 24.1998 130.2 23.9998C130.8 23.7331 131.234 23.4331 131.5 23.0998C131.634 23.3665 131.8 23.6665 132 23.9998C132.2 24.3998 132.534 24.9665 133 25.6998C133.4 26.4331 133.8 27.0998 134.2 27.6998C133.867 28.3665 133.134 28.8998 132 29.2998C130.867 29.7665 129.634 29.9998 128.3 29.9998C126.7 29.9998 125.334 29.5998 124.2 28.7998C122.4 27.5331 121.5 25.7331 121.5 23.3998V14.6998Z" fill="#4972B9"/>
<path d="M138 14.6998H134.1L134.2 9.59981H138.1V5.5998L143.8 1.7998L143.7 9.3998H148.9V14.7998H143.8V21.1998C143.734 22.1998 143.8 22.8998 144 23.2998C144.2 23.7665 144.567 24.0331 145.1 24.0998C145.634 24.2331 146.167 24.1998 146.7 23.9998C147.3 23.7331 147.734 23.4331 148 23.0998C148.134 23.3665 148.3 23.6665 148.5 23.9998C148.7 24.3998 149.034 24.9665 149.5 25.6998C149.9 26.4331 150.3 27.0998 150.7 27.6998C150.434 28.3665 149.7 28.8998 148.5 29.2998C147.367 29.7665 146.134 29.9998 144.8 29.9998C143.2 29.9998 141.834 29.5998 140.7 28.7998C138.9 27.5331 138 25.7331 138 23.3998V14.6998Z" fill="#4972B9"/>
<path fill-rule="evenodd" clip-rule="evenodd" d="M152.1 13.0997C154.034 10.833 156.7 9.69971 160.1 9.69971C161.3 9.69971 162.434 9.86637 163.5 10.1997C164.634 10.4664 165.6 10.933 166.4 11.5997C167.267 12.2664 168 13.0664 168.6 13.9997C169.267 14.8664 169.734 15.933 170 17.1997C170.267 18.3997 170.334 19.733 170.2 21.1997H155.9C155.967 21.733 156.134 22.1997 156.4 22.5997C156.667 22.9997 157 23.333 157.4 23.5997C157.8 23.8664 158.234 24.0664 158.7 24.1997C159.167 24.3997 159.7 24.4997 160.3 24.4997C160.767 24.4997 161.234 24.433 161.7 24.2997C162.167 24.1664 162.534 23.9664 162.8 23.6997C163.067 23.4997 163.334 23.2997 163.6 23.0997C163.867 22.833 164.034 22.633 164.1 22.4997C164.234 22.3664 164.3 22.2664 164.3 22.1997L169.4 24.8997C168.534 26.433 167.267 27.6664 165.6 28.5997C163.934 29.533 162.1 29.9664 160.1 29.8997C157.5 29.8997 155.267 29.1664 153.4 27.6997C151 25.7664 149.8 23.0997 149.8 19.6997C149.8 17.0997 150.567 14.8997 152.1 13.0997ZM164.2 16.4997C164.134 15.833 163.734 15.333 163 14.9997C162.267 14.5997 161.3 14.3997 160.1 14.3997C157.967 14.3997 156.6 15.0997 156 16.4997H164.2Z" fill="#4972B9"/>
<path d="M171.6 18.9997C171.6 17.6664 171.767 16.4997 172.1 15.4997C172.434 14.433 172.834 13.5664 173.3 12.8997C173.767 12.233 174.367 11.6997 175.1 11.2997C175.834 10.833 176.5 10.4997 177.1 10.2997C177.767 10.0997 178.534 9.93305 179.4 9.79971C180.334 9.73305 181.067 9.69971 181.6 9.69971C182.134 9.69971 182.8 9.69971 183.6 9.69971C184.4 9.76637 184.934 9.79971 185.2 9.79971V15.6997C183.8 15.6997 182.634 15.7664 181.7 15.8997C180.767 15.9664 180 16.0997 179.4 16.2997C178.867 16.433 178.467 16.6997 178.2 17.0997C177.934 17.4997 177.734 17.8997 177.6 18.2997C177.534 18.6997 177.5 19.233 177.5 19.8997V29.8997H171.7L171.6 18.9997Z" fill="#4972B9"/>
<path d="M134.5 64.3994V65.5994C134.5 67.7994 134 69.7327 133 71.3994C132 72.9994 130.6 74.2328 128.8 75.0994C127 76.0328 124.9 76.4661 122.5 76.3994C120.7 76.4661 118.967 76.2328 117.3 75.6994C116.567 75.4328 115.9 75.1661 115.3 74.8994C114.1 74.2994 113.7 72.6994 114.6 71.5994L115.1 70.7994C115.8 69.8994 117 69.6994 118 70.1994C118 70.1994 118 70.2328 118 70.2994C119.467 71.0328 121.134 71.4661 123 71.5994C123.267 71.5994 123.534 71.5994 123.8 71.5994C125.4 71.5994 126.867 71.3661 128.2 70.8994C128.667 70.6994 129.134 70.4994 129.6 70.2994C131.267 69.3661 132.567 68.1328 133.5 66.5994C133.9 65.9328 134.234 65.1994 134.5 64.3994Z" fill="#4972B9"/>
<path fill-rule="evenodd" clip-rule="evenodd" d="M134.5 57.9996C134.5 58.3996 134.5 58.7663 134.5 59.0996C134.367 60.6996 133.9 62.1329 133.1 63.3996C132.167 64.9329 130.867 66.1663 129.2 67.0996C128.734 67.2996 128.267 67.4996 127.8 67.6996C126.467 68.1663 125 68.3996 123.4 68.3996C123.134 68.3996 122.867 68.3996 122.6 68.3996C120.734 68.2663 119.067 67.8329 117.6 67.0996C115.934 66.1663 114.634 64.9329 113.7 63.3996C113.034 62.3329 112.6 61.1329 112.4 59.7996C112.334 59.1996 112.3 58.5996 112.3 57.9996C112.3 55.9329 112.767 54.1329 113.7 52.5996C114.634 50.9996 115.934 49.7663 117.6 48.8996C119.267 48.0329 121.2 47.5996 123.4 47.5996C125.534 47.5996 127.4 47.9996 129 48.7996C129.067 48.8663 129.134 48.8996 129.2 48.8996C130.867 49.7663 132.167 50.9996 133.1 52.5996C133.9 53.8663 134.367 55.2996 134.5 56.8996C134.5 57.2329 134.5 57.5996 134.5 57.9996ZM123.4 63.0996C123.467 63.0996 123.534 63.0996 123.6 63.0996C124.4 63.0996 125.134 62.8663 125.8 62.3996C126.467 61.9996 126.967 61.3996 127.3 60.5996C127.7 59.8663 127.9 58.9996 127.9 57.9996C127.9 57.3996 127.834 56.8329 127.7 56.2996C127.567 55.9663 127.434 55.6329 127.3 55.2996C126.967 54.5663 126.467 53.9663 125.8 53.4996C125.134 53.0996 124.334 52.8996 123.4 52.8996C122.534 52.8996 121.767 53.0996 121.1 53.4996C120.434 53.9663 119.9 54.5663 119.5 55.2996C119.167 56.0996 119 56.9996 119 57.9996C119 58.7329 119.1 59.3663 119.3 59.8996C119.367 60.1663 119.434 60.3996 119.5 60.5996C119.9 61.3996 120.434 61.9996 121.1 62.3996C121.767 62.8663 122.534 63.0996 123.4 63.0996Z" fill="#4972B9"/>
<path d="M77.3004 53.2998L73.5004 53.1998V48.0998H77.5004V44.0998L83.1003 40.2998V47.8998L88.3004 47.9998V53.2998H83.1003V59.6998C83.1003 60.6998 83.2004 61.3998 83.4004 61.7998C83.6004 62.2665 83.967 62.5331 84.5004 62.5998C84.967 62.7331 85.5003 62.6998 86.1003 62.4998C86.6337 62.2331 87.0337 61.9331 87.3004 61.5998C87.4337 61.8665 87.6004 62.1998 87.8004 62.5998C88.0004 62.9331 88.3337 63.4665 88.8004 64.1998C89.267 64.9331 89.667 65.5998 90.0004 66.1998C89.7337 66.8665 89.0337 67.3998 87.9004 67.7998C86.7004 68.2665 85.467 68.4998 84.2004 68.4998C82.6004 68.4998 81.2004 68.0998 80.0004 67.2998C78.267 66.0331 77.367 64.2331 77.3004 61.8998V53.2998Z" fill="#4972B9"/>
<path fill-rule="evenodd" clip-rule="evenodd" d="M105.1 49.3996C106.7 50.1996 107.934 51.3996 108.8 52.9996C109.734 54.5996 110.2 56.3996 110.2 58.3996C110.2 60.3996 109.734 62.1996 108.8 63.7996C107.934 65.3329 106.7 66.5329 105.1 67.3996C103.434 68.2663 101.567 68.6996 99.5004 68.6996C96.767 68.6996 94.467 67.9329 92.6003 66.3996C90.1337 64.4663 88.9004 61.7996 88.9004 58.3996C88.9004 55.7329 89.667 53.4663 91.2004 51.5996C93.2004 49.2663 95.967 48.0996 99.5004 48.0996C101.634 48.0996 103.5 48.5329 105.1 49.3996ZM102.4 62.4996C103.134 62.0996 103.7 61.4996 104.1 60.6996C104.5 59.9663 104.7 59.1663 104.7 58.2996C104.7 56.8996 104.234 55.7329 103.3 54.7996C102.434 53.8663 101.3 53.3996 99.9004 53.3996C98.4337 53.3996 97.2671 53.8663 96.4004 54.7996C95.4671 55.7329 95.0004 56.8996 95.0004 58.2996C95.0004 58.9663 95.1004 59.5996 95.3004 60.1996C95.567 60.7996 95.9004 61.2996 96.3004 61.6996C96.767 62.1663 97.3004 62.4996 97.9004 62.6996C98.5004 62.9663 99.1671 63.0996 99.9004 63.0996C100.834 63.0996 101.667 62.8996 102.4 62.4996Z" fill="#4972B9"/>
<path fill-rule="evenodd" clip-rule="evenodd" d="M139 51.5997C140.934 49.333 143.6 48.1997 147 48.1997C148.2 48.1997 149.334 48.3664 150.4 48.6997C151.534 49.033 152.5 49.4997 153.3 50.0997C154.167 50.7664 154.9 51.5664 155.5 52.4997C156.167 53.433 156.634 54.4997 156.9 55.6997C157.167 56.9664 157.234 58.2997 157.1 59.6997H142.8C142.867 60.233 143.034 60.6997 143.3 61.0997C143.567 61.4997 143.9 61.833 144.3 62.0997C144.7 62.3664 145.134 62.5664 145.6 62.6997C146.067 62.8997 146.6 62.9997 147.2 62.9997C147.667 62.9997 148.134 62.933 148.6 62.7997C149.067 62.6664 149.434 62.4997 149.7 62.2997C149.967 62.033 150.234 61.7997 150.5 61.5997C150.767 61.333 150.934 61.133 151 60.9997C151.134 60.8664 151.2 60.7664 151.2 60.6997L156.3 63.3997C155.434 64.933 154.167 66.1664 152.5 67.0997C150.834 68.033 149 68.4997 147 68.4997C144.4 68.433 142.167 67.6664 140.3 66.1997C137.9 64.2664 136.7 61.5997 136.7 58.1997C136.7 55.5997 137.467 53.3997 139 51.5997ZM151.1 55.0997C151.034 54.3664 150.634 53.833 149.9 53.4997C149.167 53.0997 148.2 52.8997 147 52.8997C144.867 52.8997 143.5 53.633 142.9 55.0997H151.1Z" fill="#4972B9"/>
<path d="M161.1 53.2998L157.2 53.1998L157.3 48.0998H161.2V44.0998L166.9 40.2998L166.8 47.8998L172 47.9998V53.2998H166.8V59.6998C166.8 60.6998 166.9 61.3998 167.1 61.7998C167.3 62.2665 167.667 62.5331 168.2 62.5998C168.734 62.7331 169.267 62.6998 169.8 62.4998C170.334 62.2331 170.767 61.9331 171.1 61.5998C171.167 61.8665 171.334 62.1998 171.6 62.5998C171.8 62.9331 172.134 63.4665 172.6 64.1998C173 64.9331 173.367 65.5998 173.7 66.1998C173.434 66.8665 172.734 67.3998 171.6 67.7998C170.467 68.2665 169.234 68.4998 167.9 68.4998C166.3 68.4998 164.934 68.0998 163.8 67.2998C162 66.0331 161.1 64.2331 161.1 61.8998V53.2998Z" fill="#4972B9"/>
<path d="M180.5 40.6997V50.7997C181.634 49.1997 183.7 48.3997 186.7 48.3997C188.967 48.3997 190.834 49.1664 192.3 50.6997C193.7 52.1664 194.4 54.033 194.4 56.2997V68.4997L188.4 68.3997V57.3997C188.4 56.2664 188.067 55.333 187.4 54.5997C186.734 53.8664 185.834 53.4664 184.7 53.3997C184.1 53.3997 183.567 53.533 183.1 53.7997C182.634 53.9997 182.234 54.2664 181.9 54.5997C181.5 54.9997 181.2 55.433 181 55.8997C180.8 56.433 180.7 56.9997 180.7 57.5997V68.4997L174.6 68.3997V40.6997H180.5Z" fill="#4972B9"/>
<path fill-rule="evenodd" clip-rule="evenodd" d="M197.8 51.5997C199.734 49.333 202.434 48.1997 205.9 48.1997C207.1 48.1997 208.234 48.3664 209.3 48.6997C210.367 49.033 211.334 49.4997 212.2 50.0997C213.067 50.7664 213.8 51.5664 214.4 52.4997C215 53.433 215.434 54.4997 215.7 55.6997C216.034 56.9664 216.134 58.2997 216 59.6997H201.7C201.767 60.233 201.9 60.6997 202.1 61.0997C202.367 61.4997 202.7 61.833 203.1 62.0997C203.5 62.3664 203.967 62.5664 204.5 62.6997C204.967 62.8997 205.5 62.9997 206.1 62.9997C206.567 62.9997 207 62.933 207.4 62.7997C207.867 62.6664 208.267 62.4997 208.6 62.2997C208.867 62.033 209.134 61.7997 209.4 61.5997C209.6 61.333 209.767 61.133 209.9 60.9997C209.967 60.8664 210 60.7664 210 60.6997L215.2 63.3997C214.334 64.933 213.067 66.1664 211.4 67.0997C209.734 68.033 207.867 68.4997 205.8 68.4997C203.2 68.433 200.967 67.6664 199.1 66.1997C196.7 64.2664 195.5 61.5997 195.5 58.1997C195.5 55.5997 196.267 53.3997 197.8 51.5997ZM210 55.0997C209.934 54.3664 209.534 53.833 208.8 53.4997C208 53.0997 207 52.8997 205.8 52.8997C203.667 52.8997 202.334 53.633 201.8 55.0997H210Z" fill="#4972B9"/>
<path d="M217.4 57.4997C217.4 56.1664 217.567 54.9997 217.9 53.9997C218.234 52.933 218.634 52.0664 219.1 51.3997C219.567 50.7997 220.134 50.2664 220.8 49.7997C221.534 49.333 222.234 48.9997 222.9 48.7997C223.567 48.5997 224.334 48.433 225.2 48.2997C226.067 48.233 226.8 48.1997 227.4 48.1997C227.934 48.1997 228.6 48.233 229.4 48.2997C230.2 48.2997 230.734 48.2997 231 48.2997V54.1997C229.534 54.1997 228.334 54.2664 227.4 54.3997C226.467 54.4664 225.734 54.5997 225.2 54.7997C224.6 54.9997 224.167 55.2664 223.9 55.5997C223.634 55.9997 223.467 56.3997 223.4 56.7997C223.334 57.1997 223.3 57.7664 223.3 58.4997V68.3997H217.5L217.4 57.4997Z" fill="#4972B9"/>
<defs>
<linearGradient id="paint0_linear_740_106" x1="0.414391" y1="0.876007" x2="59.8314" y2="0.876007" gradientUnits="userSpaceOnUse">
<stop stop-color="#4457A6"/>
<stop offset="1" stop-color="#4E8DCB"/>
</linearGradient>
</defs>
</svg>
