<svg id="google" xmlns="http://www.w3.org/2000/svg" width="31.539" height="31.539" viewBox="0 0 31.539 31.539">
  <path id="Path_34253" data-name="Path 34253" d="M6.99,148.81l-1.1,4.1-4.013.085a15.8,15.8,0,0,1-.116-14.725h0l3.572.655L6.9,142.474a9.411,9.411,0,0,0,.088,6.336Z" transform="translate(0 -129.751)" fill="#fbbb00"/>
  <path id="Path_34254" data-name="Path 34254" d="M276.775,208.176a15.764,15.764,0,0,1-5.622,15.244h0l-4.5-.23-.637-3.975a9.4,9.4,0,0,0,4.044-4.8h-8.432v-6.239Z" transform="translate(-245.512 -195.352)" fill="#518ef8"/>
  <path id="Path_34255" data-name="Path 34255" d="M54.271,318.416h0a15.775,15.775,0,0,1-23.763-4.824l5.11-4.183a9.379,9.379,0,0,0,13.515,4.8Z" transform="translate(-28.63 -290.349)" fill="#28b446"/>
  <path id="Path_34256" data-name="Path 34256" d="M52.7,3.63,47.587,7.813a9.378,9.378,0,0,0-13.825,4.91L28.625,8.517h0A15.773,15.773,0,0,1,52.7,3.63Z" transform="translate(-26.861)" fill="#f14336"/>
</svg>
